<mxfile host="app.diagrams.net" agent="Mozilla/5.0 (X11; Ubuntu; Linux x86_64; rv:131.0) Gecko/20100101 Firefox/131.0" version="24.8.0">
  <diagram name="Page-1" id="LK4jQkSLpGY8YU5E9d8o">
    <mxGraphModel dx="1368" dy="741" grid="1" gridSize="10" guides="1" tooltips="1" connect="1" arrows="1" fold="1" page="1" pageScale="1" pageWidth="827" pageHeight="1169" math="1" shadow="0">
      <root>
        <mxCell id="0" />
        <mxCell id="1" parent="0" />
        <mxCell id="Y-79FPOchbVOhItY9yyI-36" value="" style="edgeStyle=orthogonalEdgeStyle;rounded=0;orthogonalLoop=1;jettySize=auto;html=1;" parent="1" source="Y-79FPOchbVOhItY9yyI-34" target="Y-79FPOchbVOhItY9yyI-35" edge="1">
          <mxGeometry relative="1" as="geometry" />
        </mxCell>
        <mxCell id="Y-79FPOchbVOhItY9yyI-34" value="\(v_i\)&lt;br&gt;in neighbours" style="ellipse;whiteSpace=wrap;html=1;aspect=fixed;direction=west;flipH=0;flipV=0;" parent="1" vertex="1">
          <mxGeometry x="210" y="290" width="80" height="80" as="geometry" />
        </mxCell>
        <mxCell id="Y-79FPOchbVOhItY9yyI-42" value="" style="edgeStyle=orthogonalEdgeStyle;rounded=0;orthogonalLoop=1;jettySize=auto;html=1;" parent="1" source="Y-79FPOchbVOhItY9yyI-35" target="Y-79FPOchbVOhItY9yyI-40" edge="1">
          <mxGeometry relative="1" as="geometry" />
        </mxCell>
        <mxCell id="Y-79FPOchbVOhItY9yyI-35" value=" attention" style="rounded=1;whiteSpace=wrap;html=1;direction=west;flipH=0;flipV=0;" parent="1" vertex="1">
          <mxGeometry x="190" y="410" width="120" height="60" as="geometry" />
        </mxCell>
        <mxCell id="Y-79FPOchbVOhItY9yyI-37" value="" style="edgeStyle=orthogonalEdgeStyle;rounded=0;orthogonalLoop=1;jettySize=auto;html=1;" parent="1" source="Y-79FPOchbVOhItY9yyI-38" target="Y-79FPOchbVOhItY9yyI-39" edge="1">
          <mxGeometry relative="1" as="geometry" />
        </mxCell>
        <mxCell id="Y-79FPOchbVOhItY9yyI-38" value="\(v_i\)&lt;br&gt;out neighbours" style="ellipse;whiteSpace=wrap;html=1;aspect=fixed;direction=west;flipH=0;flipV=0;" parent="1" vertex="1">
          <mxGeometry x="340" y="290" width="80" height="80" as="geometry" />
        </mxCell>
        <mxCell id="Y-79FPOchbVOhItY9yyI-41" value="" style="edgeStyle=orthogonalEdgeStyle;rounded=0;orthogonalLoop=1;jettySize=auto;html=1;" parent="1" source="Y-79FPOchbVOhItY9yyI-39" target="Y-79FPOchbVOhItY9yyI-40" edge="1">
          <mxGeometry relative="1" as="geometry" />
        </mxCell>
        <mxCell id="Y-79FPOchbVOhItY9yyI-39" value="attention" style="rounded=1;whiteSpace=wrap;html=1;direction=west;flipH=0;flipV=0;" parent="1" vertex="1">
          <mxGeometry x="320" y="410" width="120" height="60" as="geometry" />
        </mxCell>
        <mxCell id="Y-79FPOchbVOhItY9yyI-44" value="" style="edgeStyle=orthogonalEdgeStyle;rounded=0;orthogonalLoop=1;jettySize=auto;html=1;" parent="1" source="Y-79FPOchbVOhItY9yyI-40" target="Y-79FPOchbVOhItY9yyI-43" edge="1">
          <mxGeometry relative="1" as="geometry" />
        </mxCell>
        <mxCell id="Y-79FPOchbVOhItY9yyI-40" value="Concatenate + ELU activation function" style="rounded=1;whiteSpace=wrap;html=1;direction=west;flipH=0;flipV=0;" parent="1" vertex="1">
          <mxGeometry x="255" y="540" width="120" height="60" as="geometry" />
        </mxCell>
        <mxCell id="Y-79FPOchbVOhItY9yyI-43" value="\(X^{v_i}_{k+1}\)" style="text;html=1;align=center;verticalAlign=middle;resizable=0;points=[];autosize=1;strokeColor=none;fillColor=none;fontSize=17;flipH=0;flipV=0;" parent="1" vertex="1">
          <mxGeometry x="240" y="630" width="150" height="30" as="geometry" />
        </mxCell>
        <mxCell id="Y-79FPOchbVOhItY9yyI-45" value="\(X^{v_i}_k\)" style="text;html=1;align=center;verticalAlign=middle;resizable=0;points=[];autosize=1;strokeColor=none;fillColor=none;fontSize=17;flipH=0;flipV=0;" parent="1" vertex="1">
          <mxGeometry x="260" y="220" width="110" height="30" as="geometry" />
        </mxCell>
        <mxCell id="Y-79FPOchbVOhItY9yyI-46" value="" style="endArrow=classic;html=1;rounded=0;" parent="1" source="Y-79FPOchbVOhItY9yyI-45" target="Y-79FPOchbVOhItY9yyI-34" edge="1">
          <mxGeometry width="50" height="50" relative="1" as="geometry">
            <mxPoint x="90" y="450" as="sourcePoint" />
            <mxPoint x="140" y="400" as="targetPoint" />
          </mxGeometry>
        </mxCell>
        <mxCell id="Y-79FPOchbVOhItY9yyI-47" value="" style="endArrow=classic;html=1;rounded=0;" parent="1" source="Y-79FPOchbVOhItY9yyI-45" target="Y-79FPOchbVOhItY9yyI-38" edge="1">
          <mxGeometry width="50" height="50" relative="1" as="geometry">
            <mxPoint x="116" y="375" as="sourcePoint" />
            <mxPoint x="221" y="349" as="targetPoint" />
          </mxGeometry>
        </mxCell>
      </root>
    </mxGraphModel>
  </diagram>
</mxfile>
